<?xml version="1.0" encoding="iso-8859-1"?>
<!-- Generator: Adobe Illustrator 19.0.0, SVG Export Plug-In . SVG Version: 6.00 Build 0)  -->
<svg version="1.1" id="Layer_1" xmlns="http://www.w3.org/2000/svg" xmlns:xlink="http://www.w3.org/1999/xlink" x="0px" y="0px"
	 viewBox="0 0 512 512" style="enable-background:new 0 0 512 512;" xml:space="preserve">
<path style="fill:#EAEAEA;" d="M417.392,160.768h-7.584c-7.536-31.728-36.128-55.504-70.336-55.504c-8.304,0-16.72,1.824-23.68,4.16
	c-16.72-47.488-62.032-81.584-115.44-81.584c-67.616,0-122.448,54.544-122.448,121.84c0,4.24,0.224,8.432,0.64,12.544
	C34.112,169.872,0,208.576,0,254.896c0,51.776,42.576,94.144,94.608,94.144h322.784c52.032,0,94.608-42.368,94.608-94.144
	C512,203.136,469.424,160.768,417.392,160.768z"/>
<path style="fill:#25B7D3;" d="M360.4,207.12l-174.656,35.296v167.04c-9.376-6.4-21.456-10.256-34.768-10.256
	c-29.52,0-53.424,19.008-53.424,42.48s23.92,42.48,53.424,42.48s53.424-19.008,53.424-42.48V312.32l135.68-21.376v97.92
	c-9.104-5.696-20.576-9.2-33.104-9.2c-29.52,0-53.424,19.008-53.424,42.48s23.92,42.48,53.424,42.48s53.424-19.008,53.424-42.48
	c0-1.584-0.176-3.248-0.352-4.736h0.352L360.4,207.12L360.4,207.12z"/>
<g>
</g>
<g>
</g>
<g>
</g>
<g>
</g>
<g>
</g>
<g>
</g>
<g>
</g>
<g>
</g>
<g>
</g>
<g>
</g>
<g>
</g>
<g>
</g>
<g>
</g>
<g>
</g>
<g>
</g>
</svg>
